<?xml version="1.0" encoding="UTF-8" standalone="no"?>
<!-- Created with Inkscape (http://www.inkscape.org/) -->

<svg
   width="210mm"
   height="297mm"
   viewBox="0 0 210 297"
   version="1.1"
   id="svg3883"
   inkscape:version="1.2.2 (b0a8486541, 2022-12-01)"
   sodipodi:docname="comic.svg"
   xmlns:inkscape="http://www.inkscape.org/namespaces/inkscape"
   xmlns:sodipodi="http://sodipodi.sourceforge.net/DTD/sodipodi-0.dtd"
   xmlns="http://www.w3.org/2000/svg"
   xmlns:svg="http://www.w3.org/2000/svg">
  <sodipodi:namedview
     id="namedview3885"
     pagecolor="#ffffff"
     bordercolor="#000000"
     borderopacity="0.25"
     inkscape:showpageshadow="2"
     inkscape:pageopacity="0.0"
     inkscape:pagecheckerboard="0"
     inkscape:deskcolor="#d1d1d1"
     inkscape:document-units="mm"
     showgrid="false"
     inkscape:zoom="1.8756036"
     inkscape:cx="331.89316"
     inkscape:cy="222.59501"
     inkscape:window-width="1920"
     inkscape:window-height="1015"
     inkscape:window-x="0"
     inkscape:window-y="0"
     inkscape:window-maximized="1"
     inkscape:current-layer="layer1" />
  <defs
     id="defs3880" />
  <g
     inkscape:label="Layer 1"
     inkscape:groupmode="layer"
     id="layer1">
    <path
       id="path5138-3"
       style="fill:#000000;fill-opacity:1;stroke:#000000;stroke-width:0.767994"
       d="m 105.04152,87.840145 c 0,0 -10.280045,-6.708133 -20.653684,-2.839752 -10.373628,3.86838 -12.596348,16.612367 -12.596348,16.612367 0,0 -2.665108,-12.498709 -12.596359,-16.612366 -9.931241,-4.113657 -20.653685,2.839751 -20.653685,2.839751 0,0 7.301059,-9.883137 2.839749,-20.653685 C 36.919894,56.415911 24.768825,54.590104 24.768825,54.590104 c 0,0 12.866599,-3.553273 16.612368,-12.596354 3.74577,-9.043081 -2.839749,-20.653689 -2.839749,-20.653689 0,0 9.47003,7.364801 20.653685,2.839752 11.183654,-4.525049 12.596359,-16.6123701 12.596359,-16.6123701 0,0 0.992581,11.7010241 12.596348,16.6123691 11.603778,4.911346 20.653684,-2.839751 20.653684,-2.839751 0,0 -7.164221,10.270638 -2.83975,20.653687 4.32447,10.383048 16.61237,12.596356 16.61237,12.596356 0,0 -11.00354,2.467223 -16.61237,12.596352 -5.608827,10.129129 2.83975,20.653689 2.83975,20.653689 z"
       sodipodi:nodetypes="czczczczczczczczc" />
    <path
       id="path5138"
       style="fill:#fff700;fill-opacity:1;stroke:#000000;stroke-width:0.723"
       d="m 119.92207,90.786313 c 0,0 -27.193846,-15.008722 -36.959735,-11.366974 -9.765889,3.641748 -13.916055,24.810251 -13.916055,24.810251 0,0 2.711442,-23.343099 -6.637974,-27.215754 -9.349417,-3.872655 -34.465962,10.982597 -34.465962,10.982597 0,0 19.167256,-11.454407 14.967319,-21.593953 -4.199937,-10.139546 -32.312301,-6.042937 -32.312301,-6.042937 0,0 28.785982,-9.160551 32.3123,-17.673835 3.526318,-8.513284 -19.131538,-26.490849 -19.131538,-26.490849 0,0 25.373373,13.980503 35.901827,9.720558 10.528454,-4.259945 15.769017,-16.6403582 15.769017,-16.6403582 0,0 -2.9762,12.0167472 7.947755,16.6403572 10.923955,4.62361 35.072547,-7.611676 35.072547,-7.611676 0,0 -22.373378,14.607218 -18.30226,24.381966 4.07112,9.774748 38.95279,19.922038 38.95279,19.922038 0,0 -33.67256,-5.740972 -38.95279,3.794733 -5.280228,9.535705 19.75506,24.383836 19.75506,24.383836 z"
       sodipodi:nodetypes="czczczczczczczczc" />
    <g
       aria-label="WINNER"
       id="text13513"
       style="font-size:19.7556px;font-family:'Komika Title - Axis';-inkscape-font-specification:'Komika Title - Axis';fill:#ff0000;stroke:#000000;stroke-width:0.723;stroke-linejoin:bevel"
       transform="rotate(-13.094373,78.982701,53.030863)">
      <g
         id="g13584"
         transform="matrix(1.5931241,0,0,1.5931241,-186.17615,12.612185)">
        <path
           d="m 190.42819,29.116245 q 0.51365,0.632179 1.14583,1.264359 0.63218,0.612423 1.26436,1.185336 0.63218,0.572912 1.22484,1.047046 0.59267,0.474135 1.04705,0.790224 0.69145,0.414868 1.20509,0.454379 0.5334,0.05927 0.96803,-0.05927 0.3556,-0.05927 0.59267,-0.09878 0.25682,-0.05927 0.61242,-0.335845 0.29633,-0.217311 0.33584,-0.414867 0.0395,-0.197556 -0.3556,-0.533402 -0.49389,-0.395112 -1.0668,-0.928513 -0.55316,-0.533401 -1.12607,-1.106313 -0.57291,-0.572913 -1.12607,-1.145825 -0.5334,-0.572913 -0.98778,-1.086558 2.21263,-0.98778 3.79308,-2.133605 1.6002,-1.145825 2.29165,-2.508961 0.45438,-0.849491 0.19755,-2.173116 -0.31609,-1.244603 -0.889,-2.094094 -0.55316,-0.869246 -1.2446,-1.619959 -0.86925,-0.849491 -2.03483,-1.027291 -1.14582,-0.197556 -2.44969,0.03951 -1.28412,0.217312 -2.6275,0.750713 -1.32362,0.533401 -2.54847,1.086558 -0.25682,0.138289 -0.49389,0.711201 -0.23707,0.553157 -0.43462,1.422404 -0.19756,0.84949 -0.37536,1.936048 -0.1778,1.066803 -0.33584,2.212628 -0.13829,1.145824 -0.25683,2.291649 -0.13829,1.145825 -0.23706,2.153361 -0.0988,0.98778 -0.15805,1.778004 -0.079,0.790224 -0.11853,1.205091 -0.0395,0.513646 0.0988,0.829735 0.13829,0.296334 0.51365,0.513646 0.37536,0.197556 0.79022,0.276578 0.41487,0.07902 0.94827,0.217312 0.45438,0.09878 0.61243,0 0.1778,-0.09878 0.27658,-0.414868 0.21731,-1.066802 0.43462,-2.173116 0.23707,-1.106313 0.51364,-2.311405 z m 2.11385,-8.020773 q 0.77047,-0.375357 1.46192,-0.513646 0.69144,-0.138289 1.26436,-0.138289 1.16558,0 1.40264,0.553157 0.11854,0.335845 -0.19755,0.948268 -0.31609,0.612424 -1.02729,1.30387 -0.71121,0.67169 -1.77801,1.343381 -1.04704,0.651935 -2.41018,1.106313 0.37536,-1.303869 0.67169,-2.449694 0.29633,-1.145825 0.61242,-2.15336 z"
           id="path13575" />
        <path
           d="m 179.76146,17.974087 -1.87678,13.137474 q -0.0395,0.533401 0.15804,0.908757 0.1778,0.375357 0.51365,0.651935 0.41486,0.355601 0.7112,0.592668 0.31609,0.217312 0.65193,0.434623 0.29634,0.197556 0.69145,0.296334 0.41487,0.118534 1.20509,-0.07902 1.18534,-0.217312 2.48921,-0.474134 1.30387,-0.256823 2.56822,-0.49389 0.53341,-0.09878 0.63218,-0.237068 0.0988,-0.158044 0,-0.553156 -0.15804,-0.355601 -0.29633,-0.691446 -0.11853,-0.355601 -0.3556,-0.750713 -0.21731,-0.355601 -0.5334,-0.474135 -0.29634,-0.118533 -0.84949,-0.07902 -0.98778,0.05927 -1.83727,0.158045 -0.82974,0.09878 -1.75825,0.256823 0.15804,-0.553157 0.29633,-1.106314 0.13829,-0.572912 0.29634,-1.205092 1.14582,-0.237067 2.37067,-0.434623 1.2446,-0.197556 2.42994,-0.414867 0.55315,-0.118534 0.67169,-0.276579 0.13829,-0.158045 -0.0198,-0.612423 -0.0988,-0.395112 -0.23707,-0.770469 -0.11853,-0.395112 -0.3556,-0.790224 -0.21731,-0.395112 -0.5334,-0.513645 -0.31609,-0.118534 -0.86924,-0.09878 -0.67169,0.01975 -1.26436,0.05927 -0.59267,0.03951 -1.18534,0.118534 0.31609,-1.047047 0.57291,-1.995316 0.25683,-0.968024 0.55316,-1.857026 1.40265,-0.197556 2.66701,-0.335845 1.26435,-0.138289 2.44969,-0.276579 0.57291,-0.07902 0.73096,-0.256822 0.15804,-0.177801 0.079,-0.691446 -0.0988,-0.454379 -0.19756,-0.829736 -0.0988,-0.395112 -0.3556,-0.869246 -0.31609,-0.889002 -1.44216,-0.869246 -1.18533,0.03951 -2.39042,0.197556 -1.18534,0.138289 -2.33116,0.335845 -1.12607,0.197556 -2.17312,0.434623 -1.02729,0.237067 -1.87678,0.454379 z"
           id="path13573" />
        <path
           d="m 174.65651,27.278974 q -0.21731,-1.007535 -0.43462,-2.094093 -0.21731,-1.106314 -0.41487,-2.133605 -0.19756,-1.047047 -0.3556,-1.936049 -0.15805,-0.889002 -0.25682,-1.461914 -0.11854,-0.750713 -0.37536,-1.126069 -0.25682,-0.395112 -0.86925,-0.651935 -0.75071,-0.355601 -1.44216,-0.572913 -0.69144,-0.217311 -1.4224,-0.434623 -0.61242,-0.158045 -0.96802,0 -0.3556,0.138289 -0.49389,0.730957 -0.21731,1.027292 -0.45438,2.350917 -0.21731,1.323625 -0.43463,2.746028 -0.21731,1.422403 -0.39511,2.864562 -0.19755,1.422403 -0.33584,2.686762 -0.15805,1.244603 -0.23707,2.232383 -0.0988,0.98778 -0.13829,1.521181 -0.0395,0.513645 0.11853,0.809979 0.13829,0.276579 0.57292,0.49389 0.45438,0.276579 0.92851,0.414868 0.49389,0.118534 0.96802,0.237067 0.51365,0.138289 0.69145,0.03951 0.1778,-0.07902 0.25682,-0.414867 0.0988,-0.711202 0.25683,-1.659471 0.1778,-0.968024 0.37535,-2.074338 0.21731,-1.126069 0.43463,-2.350916 0.23706,-1.224847 0.45437,-2.449694 0.25683,1.027291 0.55316,2.054582 0.29634,1.007536 0.59267,1.955804 0.29633,0.928514 0.57291,1.738493 0.29634,0.80998 0.57291,1.422403 0.35561,0.849491 1.22485,1.185336 0.94827,0.335846 1.85703,0.513646 1.0668,0.237067 1.18533,-0.513646 0.31609,-1.382892 0.75072,-3.200407 0.45438,-1.837271 0.92851,-3.753564 0.49389,-1.916293 0.98778,-3.773319 0.49389,-1.857027 0.94827,-3.318941 0.15804,-0.513646 0.079,-0.869247 -0.0593,-0.375356 -0.63218,-0.730957 -0.33584,-0.217311 -0.59267,-0.355601 -0.25682,-0.138289 -0.49389,-0.237067 -0.21731,-0.09878 -0.45437,-0.158045 -0.23707,-0.05927 -0.53341,-0.138289 -0.63218,-0.158045 -0.96802,-0.01975 -0.31609,0.138289 -0.47413,0.711201 -0.57292,2.113849 -1.16559,4.622811 -0.57291,2.508961 -0.96802,5.096944 z"
           id="path13571" />
        <path
           d="m 162.07568,27.278974 q -0.21732,-1.007535 -0.43463,-2.094093 -0.21731,-1.106314 -0.41487,-2.133605 -0.19755,-1.047047 -0.3556,-1.936049 -0.15804,-0.889002 -0.25682,-1.461914 -0.11853,-0.750713 -0.37536,-1.126069 -0.25682,-0.395112 -0.86924,-0.651935 -0.75071,-0.355601 -1.44216,-0.572913 -0.69145,-0.217311 -1.4224,-0.434623 -0.61243,-0.158045 -0.96803,0 -0.3556,0.138289 -0.49389,0.730957 -0.21731,1.027292 -0.45438,2.350917 -0.21731,1.323625 -0.43462,2.746028 -0.21731,1.422403 -0.39511,2.864562 -0.19756,1.422403 -0.33585,2.686762 -0.15804,1.244603 -0.23706,2.232383 -0.0988,0.98778 -0.13829,1.521181 -0.0395,0.513645 0.11853,0.809979 0.13829,0.276579 0.57291,0.49389 0.45438,0.276579 0.92852,0.414868 0.49389,0.118534 0.96802,0.237067 0.51365,0.138289 0.69145,0.03951 0.1778,-0.07902 0.25682,-0.414867 0.0988,-0.711202 0.25682,-1.659471 0.1778,-0.968024 0.37536,-2.074338 0.21731,-1.126069 0.43462,-2.350916 0.23707,-1.224847 0.45438,-2.449694 0.25682,1.027291 0.55316,2.054582 0.29633,1.007536 0.59266,1.955804 0.29634,0.928514 0.57292,1.738493 0.29633,0.80998 0.57291,1.422403 0.3556,0.849491 1.22485,1.185336 0.94827,0.335846 1.85702,0.513646 1.06681,0.237067 1.18534,-0.513646 0.31609,-1.382892 0.75071,-3.200407 0.45438,-1.837271 0.92851,-3.753564 0.49389,-1.916293 0.98778,-3.773319 0.49389,-1.857027 0.94827,-3.318941 0.15805,-0.513646 0.079,-0.869247 -0.0593,-0.375356 -0.63218,-0.730957 -0.33585,-0.217311 -0.59267,-0.355601 -0.25682,-0.138289 -0.49389,-0.237067 -0.21731,-0.09878 -0.45438,-0.158045 -0.23707,-0.05927 -0.5334,-0.138289 -0.63218,-0.158045 -0.96803,-0.01975 -0.31609,0.138289 -0.47413,0.711201 -0.57291,2.113849 -1.16558,4.622811 -0.57291,2.508961 -0.96802,5.096944 z"
           id="path13569" />
        <path
           d="m 155.06509,18.053109 q -0.5334,-0.355601 -1.2446,-0.67169 -0.7112,-0.31609 -1.32362,-0.474135 -0.61243,-0.1778 -0.92852,-0.03951 -0.29633,0.118534 -0.47413,0.691446 -0.21731,0.928513 -0.47414,2.173116 -0.25682,1.224847 -0.51364,2.607739 -0.23707,1.382892 -0.47414,2.825051 -0.23706,1.442159 -0.41486,2.746029 -0.19756,1.303869 -0.31609,2.410183 -0.13829,1.086558 -0.1778,1.778004 -0.0593,0.513645 0.0988,0.809979 0.13828,0.276579 0.59266,0.49389 0.41487,0.217312 0.86925,0.355601 0.47413,0.138289 0.98778,0.276579 0.51365,0.118533 0.67169,0.01976 0.1778,-0.09878 0.27658,-0.434623 0.1778,-0.889002 0.41487,-2.015071 0.25682,-1.145825 0.55315,-2.410183 0.29634,-1.284114 0.61243,-2.60774 0.31609,-1.34338 0.63218,-2.607739 0.33584,-1.284114 0.65193,-2.429939 0.33585,-1.145824 0.61242,-2.034826 0.13829,-0.533402 0.0198,-0.80998 -0.0988,-0.276578 -0.65194,-0.651935 z"
           id="path13567" />
        <path
           d="m 136.43168,28.563088 q 0,-1.185336 0.0198,-2.489205 0.0395,-1.323625 0.079,-2.528717 0.0593,-1.224847 0.0988,-2.212627 0.0593,-0.98778 0.079,-1.501426 0.0198,-0.256823 0,-0.553157 -0.0198,-0.316089 -0.11853,-0.592668 -0.079,-0.296334 -0.25683,-0.553156 -0.1778,-0.256823 -0.47413,-0.434624 -0.51365,-0.296334 -1.10631,-0.454378 -0.59267,-0.177801 -1.32363,-0.335846 -0.63218,-0.138289 -0.84949,0.03951 -0.21731,0.1778 -0.23707,0.809979 0,1.126069 0.0198,2.449695 0.0198,1.303869 0.079,2.686761 0.0593,1.363137 0.13829,2.746029 0.079,1.382892 0.1778,2.64725 0.0988,1.205092 0.23707,2.271894 0.11853,1.047047 0.27658,1.857026 0.0593,0.553157 0.25682,0.829736 0.21731,0.256822 0.69144,0.414867 0.51365,0.158045 1.06681,0.296334 0.57291,0.158045 1.18533,0.256823 0.45438,0.05927 0.7112,-0.01976 0.27658,-0.05927 0.51365,-0.454378 0.21731,-0.49389 0.57291,-1.244603 0.3556,-0.770469 0.77047,-1.659471 0.43462,-0.889002 0.90876,-1.817515 0.47413,-0.948269 0.92851,-1.817515 0,0.691446 0.0593,1.422403 0.079,0.730957 0.15804,1.442159 0.079,0.691446 0.15805,1.284114 0.0988,0.592668 0.15804,1.007536 0.079,0.414867 0.31609,0.770468 0.23707,0.335845 0.79023,0.533401 0.27657,0.05927 0.49389,0.118534 0.23706,0.07902 0.45437,0.138289 0.23707,0.05927 0.49389,0.118534 0.25683,0.07902 0.61243,0.138289 0.63218,0.09878 0.96802,0 0.33585,-0.09878 0.5334,-0.474135 0.3556,-0.809979 0.84949,-1.896537 0.49389,-1.086558 1.04705,-2.311405 0.57291,-1.244603 1.18534,-2.548473 0.63218,-1.323625 1.2446,-2.587983 0.61242,-1.264359 1.20509,-2.429939 0.59267,-1.165581 1.08656,-2.074338 0.23707,-0.513646 0.25682,-1.007536 0.0198,-0.49389 -0.43462,-0.928513 -0.41487,-0.335845 -0.86925,-0.592668 -0.43462,-0.276578 -0.889,-0.49389 -0.63218,-0.256823 -0.92851,-0.1778 -0.29634,0.05927 -0.59267,0.67169 -0.23707,0.454379 -0.59267,1.185336 -0.33584,0.711202 -0.77047,1.619959 -0.41486,0.908758 -0.90875,1.955805 -0.47414,1.027291 -0.96803,2.113849 -0.49389,1.086558 -0.98778,2.173116 -0.47413,1.066802 -0.889,2.034827 0.079,-1.165581 0.15804,-2.390428 0.0988,-1.224847 0.1778,-2.311405 0.079,-1.086558 0.13829,-1.896538 0.0593,-0.809979 0.0593,-1.145825 0,-0.296334 -0.0198,-0.513645 0,-0.217312 -0.079,-0.375357 -0.0593,-0.158044 -0.21731,-0.276578 -0.13829,-0.118534 -0.43462,-0.237067 -0.5334,-0.217312 -0.92852,-0.355601 -0.37535,-0.138289 -0.94826,-0.256823 -0.57292,-0.138289 -0.86925,-0.01975 -0.27658,0.118533 -0.51365,0.553156 -0.31609,0.513646 -0.82973,1.600204 -0.49389,1.086558 -1.08656,2.410183 -0.57291,1.323625 -1.18534,2.746029 -0.59266,1.422403 -1.10631,2.627494 z"
           id="path13565" />
      </g>
    </g>
  </g>
</svg>
